<?xml version="1.0" encoding="utf-8"?>
<!-- Generator: Adobe Illustrator 18.0.0, SVG Export Plug-In . SVG Version: 6.00 Build 0)  -->
<!DOCTYPE svg PUBLIC "-//W3C//DTD SVG 1.1//EN" "http://www.w3.org/Graphics/SVG/1.1/DTD/svg11.dtd">
<svg version="1.1" id="Layer_1" xmlns="http://www.w3.org/2000/svg" xmlns:xlink="http://www.w3.org/1999/xlink" x="0px" y="0px"
	 viewBox="0 0 612 792" enable-background="new 0 0 612 792" xml:space="preserve">
<path fill="#00A1C1" d="M306,102.2c-162.8,0-293.8,131-293.8,293.8s131,293.8,293.8,293.8s293.8-131,293.8-293.8
	S468.8,102.2,306,102.2z"/>
<g>
	<path fill="#FFFFFF" d="M306,409.9c30.4,0,57.2,7.3,79,16.8c20.1,8.9,32.8,29.1,32.8,50.9v30.2H194.2v-30c0-22,12.7-42.2,32.8-50.9
		C248.8,417.2,275.6,409.9,306,409.9z M156.9,414.6c20.5,0,37.3-16.8,37.3-37.3c0-20.5-16.8-37.3-37.3-37.3s-37.3,16.8-37.3,37.3
		C119.6,397.8,136.3,414.6,156.9,414.6z M177.9,435.1c-6.9-1.1-13.8-1.8-21-1.8c-18.5,0-36,4-51.8,10.8c-13.8,6-22.8,19.4-22.8,34.5
		v29.3h83.9v-30C166.1,462.3,170.5,447.8,177.9,435.1z M455.1,414.6c20.5,0,37.3-16.8,37.3-37.3c0-20.5-16.8-37.3-37.3-37.3
		c-20.5,0-37.3,16.8-37.3,37.3C417.9,397.8,434.6,414.6,455.1,414.6z M529.8,478.6c0-15.1-8.9-28.5-22.8-34.5
		c-15.8-6.9-33.4-10.8-51.8-10.8c-7.3,0-14.2,0.7-21,1.8c7.4,12.7,11.8,27.2,11.8,42.7v30h83.9V478.6z M306,284.1c31,0,56,25,56,56
		S337,396,306,396s-56-25-56-56S275,284.1,306,284.1z"/>
</g>
</svg>
